<?xml version="1.0" encoding="utf-8"?>
<!-- Generator: Adobe Illustrator 16.0.0, SVG Export Plug-In . SVG Version: 6.00 Build 0)  -->
<!DOCTYPE svg PUBLIC "-//W3C//DTD SVG 1.1//EN" "http://www.w3.org/Graphics/SVG/1.1/DTD/svg11.dtd">
<svg version="1.1" id="Isolation_Mode" xmlns="http://www.w3.org/2000/svg" xmlns:xlink="http://www.w3.org/1999/xlink" x="0px"
	 y="0px" width="120.355px" height="123px" viewBox="0 0 120.355 123" enable-background="new 0 0 120.355 123"
	 xml:space="preserve">
<path d="M118.774,101.555c2.125,2.174,2.105,5.719-0.045,7.869l-10.894,11.356c-1.04,1.041-2.451,2.22-3.923,2.22
	c-0.013,0-0.025,0-0.039,0c-1.484,0-2.903-1.145-3.939-2.209L60.178,79.547l-39.757,41.262c-1.036,1.064-2.455,2.191-3.939,2.191
	c-0.013,0-0.026,0-0.039,0c-1.472,0-2.883-1.175-3.923-2.217L1.625,109.465c-2.146-2.145-2.17-5.694-0.055-7.869l39.975-41.134
	L1.57,19.355c-2.115-2.175-2.091-5.611,0.055-7.757L12.52,1.12C13.56,0.079,14.971,0,16.442,0c0.013,0,0.026,0,0.039,0
	c1.484,0,2.903,0.15,3.939,1.215l39.757,40.584L99.935,1.254C100.971,0.189,102.39,0,103.874,0c0.013,0,0.026,0,0.039,0
	c1.472,0,2.883,0.074,3.923,1.115l10.894,10.551c2.15,2.148,2.17,5.546,0.045,7.72L78.586,60.439L118.774,101.555z"/>
</svg>
