<?xml version="1.0" encoding="utf-8"?>
<!-- Generator: Adobe Illustrator 16.0.0, SVG Export Plug-In . SVG Version: 6.00 Build 0)  -->
<!DOCTYPE svg PUBLIC "-//W3C//DTD SVG 1.1//EN" "http://www.w3.org/Graphics/SVG/1.1/DTD/svg11.dtd">
<svg version="1.1" id="Isolation_Mode" xmlns="http://www.w3.org/2000/svg" xmlns:xlink="http://www.w3.org/1999/xlink" x="0px"
	 y="0px" width="30px" height="30px" viewBox="-449.323 1054 30 30" enable-background="new -449.323 1054 30 30"
	 xml:space="preserve">
<path fill="#FFFFFF" d="M-419.504,1058.935c0.028-0.045,0.053-0.092,0.073-0.14c0.009-0.021,0.016-0.043,0.024-0.064
	c0.017-0.049,0.033-0.098,0.043-0.149c0.015-0.06,0.023-0.12,0.029-0.181c0.001-0.015,0.003-0.029,0.004-0.043
	c0.003-0.047,0.006-0.091,0.005-0.137c0.001-0.038,0.004-0.074,0.004-0.111c0-0.004,0-0.007,0-0.011c0-0.366-0.02-0.719-0.273-0.978
	l-2.555-2.716c-0.318-0.324-0.751-0.45-1.161-0.386c-0.037-0.006-0.073-0.02-0.111-0.02c-0.003,0-0.006,0-0.009,0
	c-0.37,0-0.724,0.272-0.982,0.535l-9.664,9.812l-10.024-9.956c-0.289-0.287-0.678-0.411-1.056-0.382
	c-0.019-0.002-0.038-0.01-0.056-0.01c-0.004,0-0.007,0-0.009,0c-0.368,0-0.72,0.289-0.979,0.541l-1.146,1.17l-1.433,1.41
	c-0.256,0.259-0.541,0.611-0.541,0.979c0,0.003,0,0.006,0,0.01c0,0.02,0.009,0.039,0.01,0.06c-0.031,0.38,0.093,0.771,0.384,1.061
	l9.979,9.992l-9.836,9.688c-0.258,0.258-0.537,0.611-0.537,0.981c0,0.004,0,0.007,0,0.01c0,0.035,0.014,0.069,0.019,0.104
	c-0.064,0.405,0.062,0.832,0.385,1.148l2.716,2.574c0.259,0.252,0.611,0.271,0.978,0.271c0.004,0,0.006,0,0.01,0
	c0.039,0,0.077-0.004,0.116-0.004c0.139,0.005,0.276-0.014,0.411-0.051c0.004,0,0.009-0.002,0.013-0.003
	c0.213-0.062,0.416-0.169,0.583-0.337l9.791-9.778l9.889,9.876c0.258,0.26,0.611,0.297,0.981,0.297c0.003,0,0.006,0,0.01,0
	c0.083,0,0.163-0.002,0.244-0.007c0.361,0.018,0.728-0.112,1.009-0.397l1.12-1.182l1.32-1.242c0.286-0.28,0.416-0.65,0.398-1.014
	c0.005-0.084,0.007-0.17,0.007-0.256c0-0.004,0-0.007,0-0.01c0-0.371-0.045-0.724-0.307-0.982l-9.842-9.865l9.757-9.824
	C-419.628,1059.135-419.562,1059.036-419.504,1058.935z"/>
</svg>
