<?xml version="1.0" encoding="utf-8"?>
<!-- Generator: Adobe Illustrator 16.0.0, SVG Export Plug-In . SVG Version: 6.00 Build 0)  -->
<!DOCTYPE svg PUBLIC "-//W3C//DTD SVG 1.1//EN" "http://www.w3.org/Graphics/SVG/1.1/DTD/svg11.dtd">
<svg version="1.1" id="Layer_1" xmlns="http://www.w3.org/2000/svg" xmlns:xlink="http://www.w3.org/1999/xlink" x="0px" y="0px"
	 width="48px" height="48px" viewBox="0 0 48 48" enable-background="new 0 0 48 48" xml:space="preserve">
<g>
	<g>
		<path fill="#333333" d="M23.999,48c-0.743,0-1.441-0.291-1.967-0.819L0.814,25.963c-1.083-1.083-1.083-2.845,0-3.928L22.035,0.814
			c1.051-1.051,2.877-1.05,3.928,0l21.221,21.222C47.709,22.558,48,23.256,48,24s-0.291,1.441-0.819,1.967L25.963,47.184
			C25.44,47.709,24.742,48,23.999,48z M3.092,24l20.907,20.906L44.905,24L23.999,3.093L3.092,24z"/>
	</g>
</g>
<g>
	<path fill="#333333" d="M22.011,22.879c0.25,0.063,0.5,0.083,0.75,0.083c1.398,0,2.671-0.832,2.671-2.333
		c0-0.835-0.482-1.836-1.44-1.836c-0.938,0-1.396,0.876-1.396,1.709v0.251H19.55c-0.125-2.524,1.897-4.504,4.421-4.504
		c2.565,0,4.484,1.919,4.484,4.482c0,2.043-1.357,3.837-3.36,4.296L24.93,27.03h-2.919V22.879z M25.368,30.301
		c0,1.02-0.833,1.875-1.855,1.875c-1.023,0-1.855-0.854-1.855-1.875c0-1.022,0.832-1.837,1.855-1.837
		C24.535,28.464,25.368,29.278,25.368,30.301z"/>
</g>
</svg>
