<?xml version="1.0" encoding="utf-8"?>
<!-- Generator: Adobe Illustrator 16.0.0, SVG Export Plug-In . SVG Version: 6.00 Build 0)  -->
<!DOCTYPE svg PUBLIC "-//W3C//DTD SVG 1.1//EN" "http://www.w3.org/Graphics/SVG/1.1/DTD/svg11.dtd">
<svg version="1.1" id="Layer_1" xmlns="http://www.w3.org/2000/svg" xmlns:xlink="http://www.w3.org/1999/xlink" x="0px" y="0px"
	 width="268.75px" height="268.75px" viewBox="0 0 268.75 268.75" enable-background="new 0 0 268.75 268.75" xml:space="preserve">
<g>
	<path fill="#333333" d="M134.375,0C60.162,0,0,60.162,0,134.375S60.162,268.75,134.375,268.75S268.75,208.588,268.75,134.375
		S208.588,0,134.375,0z M203.578,106.013l-81.959,81.959c-1.398,1.397-3.404,3.235-5.254,3.235c-1.851,0-3.66-1.838-5.057-3.235
		l-38.89-38.887c-1.888-1.89-1.888-4.945-0.003-6.834l13.665-13.665c1.888-1.885,4.939-1.885,6.827,0.004l23.556,23.551
		l66.625-66.621c1.89-1.888,4.94-1.888,6.829-0.006l13.666,13.666C205.468,101.067,205.468,104.125,203.578,106.013z"/>
</g>
</svg>
