<?xml version="1.0" encoding="utf-8"?>
<!-- Generator: Adobe Illustrator 16.0.0, SVG Export Plug-In . SVG Version: 6.00 Build 0)  -->
<!DOCTYPE svg PUBLIC "-//W3C//DTD SVG 1.1//EN" "http://www.w3.org/Graphics/SVG/1.1/DTD/svg11.dtd">
<svg version="1.1" id="Layer_1" xmlns="http://www.w3.org/2000/svg" xmlns:xlink="http://www.w3.org/1999/xlink" x="0px" y="0px"
	 width="42px" height="42px" viewBox="519 939 42 42" enable-background="new 519 939 42 42" xml:space="preserve">
<path d="M540,939c-11.598,0-21,9.402-21,21s9.402,21,21,21c11.598,0,21-9.402,21-21S551.598,939,540,939z M547.194,969.443h-14.726
	l7.498-8.184c0.364-0.396,0.721-0.853,1.035-1.346c0.61-0.961,1.057-2.068,1.058-3.175c-0.001-0.683-0.286-1.383-0.774-1.847
	c-0.347-0.327-0.794-0.537-1.318-0.537c-0.713,0-1.247,0.31-1.583,0.795c-0.271,0.395-0.414,0.904-0.414,1.458
	c0,0.243,0.024,0.49,0.073,0.801h-0.074h-5.184c0.146-4.219,2.824-7.083,7.156-7.083c2.075,0,3.971,0.734,5.28,2.036
	c1.116,1.111,1.804,2.635,1.804,4.473c-0.001,2.628-1.096,4.17-2.97,5.873l-2.848,2.671h5.987V969.443L547.194,969.443z"/>
</svg>
