<?xml version="1.0" encoding="utf-8"?>
<!-- Generator: Adobe Illustrator 16.0.0, SVG Export Plug-In . SVG Version: 6.00 Build 0)  -->
<!DOCTYPE svg PUBLIC "-//W3C//DTD SVG 1.1//EN" "http://www.w3.org/Graphics/SVG/1.1/DTD/svg11.dtd">
<svg version="1.1" id="Layer_1" xmlns="http://www.w3.org/2000/svg" xmlns:xlink="http://www.w3.org/1999/xlink" x="0px" y="0px"
	 width="268.75px" height="268.75px" viewBox="0 0 268.75 268.75" enable-background="new 0 0 268.75 268.75" xml:space="preserve">
<path fill="#333333" d="M134.375,0C60.162,0,0,60.162,0,134.375S60.162,268.75,134.375,268.75S268.75,208.588,268.75,134.375
	S208.588,0,134.375,0z M181.409,161.827c0,0.005,0,0.01,0,0.015c0,25.699-22.112,39.116-45.477,39.116h-0.016
	c-0.005,0-0.01,0-0.015,0c-4.192,0-8.268-0.451-12.181-1.236c-8.615-1.706-16.43-5.473-22.985-12.135
	c-7.008-7.164-13.707-19.629-13.395-29.629h31.151c0,9,6.697,16.652,16.352,16.654c0.472,0,0.933-0.059,1.392-0.09
	c0.108-0.007,0.222-0.02,0.33-0.029c0.333-0.027,0.653-0.088,0.979-0.133c0.228-0.03,0.461-0.053,0.686-0.092
	c0.106-0.019,0.207-0.05,0.313-0.07c4.738-0.906,8.582-3.559,10.742-7.492c1.222-2.23,1.903-4.871,1.903-7.834
	c0-8.879-7.77-15.731-16.336-15.731c-1.869,0-3.445,0.466-5.445,0.933v-20.115h3.413c7.772,0,13.371-4.954,13.394-13.024
	c-0.015-4.547-2.105-8.104-5.388-10.071c-1.87-1.098-4.122-1.651-6.604-1.651c-7.788,0-12.616,5.747-12.461,13.747H93.416
	c1.246-13,6.23-21.902,13.707-28.6c7.476-6.697,17.834-10.345,29.827-10.345c21.027,0,37.459,12.118,37.459,34.08
	c0,0.008,0,0.015,0,0.022c0,0.009,0,0.017,0,0.024c0,9.335-3.657,19.27-12.206,24.104c12.443,3.283,19.206,17.589,19.206,29.573
	C181.409,161.82,181.409,161.823,181.409,161.827z"/>
</svg>
