<?xml version="1.0" encoding="utf-8"?>
<!-- Generator: Adobe Illustrator 16.0.0, SVG Export Plug-In . SVG Version: 6.00 Build 0)  -->
<!DOCTYPE svg PUBLIC "-//W3C//DTD SVG 1.1//EN" "http://www.w3.org/Graphics/SVG/1.1/DTD/svg11.dtd">
<svg version="1.1" id="Layer_1" xmlns="http://www.w3.org/2000/svg" xmlns:xlink="http://www.w3.org/1999/xlink" x="0px" y="0px"
	 width="42px" height="42px" viewBox="-21 -21 42 42" enable-background="new -21 -21 42 42" xml:space="preserve">
<path d="M0-21c-11.598,0-21,9.402-21,21c0,11.598,9.402,21,21,21c11.598,0,21-9.402,21-21C21-11.598,11.598-21,0-21z M7.351,4.29
	c0,0.001,0,0.002,0,0.003c0,4.016-3.456,6.112-7.107,6.112H0.241c0,0-0.001,0-0.002,0c-0.655,0-1.292-0.07-1.903-0.192
	c-1.347-0.268-2.568-0.855-3.592-1.897c-1.095-1.119-2.142-3.067-2.093-4.63h4.868c0,1.406,1.047,2.603,2.556,2.603
	c0.074,0,0.146-0.009,0.217-0.014C0.308,6.273,0.325,6.271,0.342,6.27c0.052-0.004,0.102-0.014,0.153-0.021
	C0.531,6.244,0.567,6.24,0.603,6.234c0.017-0.003,0.032-0.008,0.049-0.011c0.74-0.142,1.341-0.557,1.679-1.171
	c0.191-0.349,0.297-0.762,0.297-1.225c0-1.388-1.214-2.458-2.552-2.458c-0.292,0-0.539,0.072-0.851,0.146v-3.144h0.533
	c1.215,0,2.09-0.774,2.094-2.035C1.848-4.374,1.521-4.93,1.008-5.237C0.716-5.409,0.364-5.495-0.024-5.495
	c-1.217,0-1.972,0.898-1.947,2.148h-4.43c0.195-2.032,0.974-3.423,2.142-4.47c1.168-1.046,2.787-1.617,4.661-1.617
	c3.286,0,5.854,1.894,5.854,5.326c0,0.001,0,0.002,0,0.003c0,0.001,0,0.002,0,0.004c0,1.458-0.572,3.011-1.908,3.767
	C6.294,0.18,7.351,2.416,7.351,4.29L7.351,4.29z"/>
</svg>
